<mxfile host="Electron" modified="2024-08-19T03:13:41.528Z" agent="Mozilla/5.0 (Windows NT 10.0; Win64; x64) AppleWebKit/537.36 (KHTML, like Gecko) draw.io/22.1.21 Chrome/120.0.6099.109 Electron/28.1.0 Safari/537.36" etag="ij-74BqAhW-_XffwUbqW" version="22.1.21" type="device">
  <diagram id="C5RBs43oDa-KdzZeNtuy" name="Page-1">
    <mxGraphModel dx="1050" dy="629" grid="1" gridSize="10" guides="1" tooltips="1" connect="1" arrows="1" fold="1" page="1" pageScale="1" pageWidth="827" pageHeight="1169" math="0" shadow="0">
      <root>
        <mxCell id="WIyWlLk6GJQsqaUBKTNV-0" />
        <mxCell id="WIyWlLk6GJQsqaUBKTNV-1" parent="WIyWlLk6GJQsqaUBKTNV-0" />
        <mxCell id="jF1OUKV5G7TDA0UQZqW0-9" style="edgeStyle=orthogonalEdgeStyle;rounded=0;orthogonalLoop=1;jettySize=auto;html=1;exitX=0.5;exitY=1;exitDx=0;exitDy=0;entryX=0.5;entryY=0;entryDx=0;entryDy=0;" edge="1" parent="WIyWlLk6GJQsqaUBKTNV-1" source="jF1OUKV5G7TDA0UQZqW0-0" target="jF1OUKV5G7TDA0UQZqW0-1">
          <mxGeometry relative="1" as="geometry" />
        </mxCell>
        <mxCell id="jF1OUKV5G7TDA0UQZqW0-0" value="BEGIN" style="ellipse;whiteSpace=wrap;html=1;fillColor=#60a917;fontColor=#ffffff;strokeColor=#2D7600;" vertex="1" parent="WIyWlLk6GJQsqaUBKTNV-1">
          <mxGeometry x="290" y="40" width="120" height="80" as="geometry" />
        </mxCell>
        <mxCell id="jF1OUKV5G7TDA0UQZqW0-10" style="edgeStyle=orthogonalEdgeStyle;rounded=0;orthogonalLoop=1;jettySize=auto;html=1;exitX=0.5;exitY=1;exitDx=0;exitDy=0;entryX=0.5;entryY=0;entryDx=0;entryDy=0;" edge="1" parent="WIyWlLk6GJQsqaUBKTNV-1" source="jF1OUKV5G7TDA0UQZqW0-1" target="jF1OUKV5G7TDA0UQZqW0-2">
          <mxGeometry relative="1" as="geometry" />
        </mxCell>
        <mxCell id="jF1OUKV5G7TDA0UQZqW0-1" value="Khởi tạo module và ngoại vi:&lt;br&gt;Wifi (dual mode)&lt;br&gt;GPIO" style="rounded=0;whiteSpace=wrap;html=1;" vertex="1" parent="WIyWlLk6GJQsqaUBKTNV-1">
          <mxGeometry x="270" y="180" width="160" height="100" as="geometry" />
        </mxCell>
        <mxCell id="jF1OUKV5G7TDA0UQZqW0-11" style="edgeStyle=orthogonalEdgeStyle;rounded=0;orthogonalLoop=1;jettySize=auto;html=1;exitX=0.5;exitY=1;exitDx=0;exitDy=0;entryX=0.5;entryY=0;entryDx=0;entryDy=0;" edge="1" parent="WIyWlLk6GJQsqaUBKTNV-1" source="jF1OUKV5G7TDA0UQZqW0-2" target="jF1OUKV5G7TDA0UQZqW0-4">
          <mxGeometry relative="1" as="geometry" />
        </mxCell>
        <mxCell id="jF1OUKV5G7TDA0UQZqW0-2" value="Kết nối wifi với router" style="rounded=0;whiteSpace=wrap;html=1;" vertex="1" parent="WIyWlLk6GJQsqaUBKTNV-1">
          <mxGeometry x="290" y="360" width="120" height="60" as="geometry" />
        </mxCell>
        <mxCell id="jF1OUKV5G7TDA0UQZqW0-12" style="edgeStyle=orthogonalEdgeStyle;rounded=0;orthogonalLoop=1;jettySize=auto;html=1;exitX=0.5;exitY=1;exitDx=0;exitDy=0;entryX=0.5;entryY=0;entryDx=0;entryDy=0;" edge="1" parent="WIyWlLk6GJQsqaUBKTNV-1" source="jF1OUKV5G7TDA0UQZqW0-4" target="jF1OUKV5G7TDA0UQZqW0-6">
          <mxGeometry relative="1" as="geometry" />
        </mxCell>
        <mxCell id="jF1OUKV5G7TDA0UQZqW0-19" value="Sai" style="edgeLabel;html=1;align=center;verticalAlign=middle;resizable=0;points=[];" vertex="1" connectable="0" parent="jF1OUKV5G7TDA0UQZqW0-12">
          <mxGeometry x="-0.16" y="-4" relative="1" as="geometry">
            <mxPoint as="offset" />
          </mxGeometry>
        </mxCell>
        <mxCell id="jF1OUKV5G7TDA0UQZqW0-14" style="edgeStyle=orthogonalEdgeStyle;rounded=0;orthogonalLoop=1;jettySize=auto;html=1;exitX=1;exitY=0.5;exitDx=0;exitDy=0;entryX=0;entryY=0.5;entryDx=0;entryDy=0;" edge="1" parent="WIyWlLk6GJQsqaUBKTNV-1" source="jF1OUKV5G7TDA0UQZqW0-4" target="jF1OUKV5G7TDA0UQZqW0-5">
          <mxGeometry relative="1" as="geometry" />
        </mxCell>
        <mxCell id="jF1OUKV5G7TDA0UQZqW0-18" value="Đúng" style="edgeLabel;html=1;align=center;verticalAlign=middle;resizable=0;points=[];" vertex="1" connectable="0" parent="jF1OUKV5G7TDA0UQZqW0-14">
          <mxGeometry x="-0.1273" y="3" relative="1" as="geometry">
            <mxPoint as="offset" />
          </mxGeometry>
        </mxCell>
        <mxCell id="jF1OUKV5G7TDA0UQZqW0-4" value="Chương trình kết thúc ?&amp;nbsp;" style="rhombus;whiteSpace=wrap;html=1;" vertex="1" parent="WIyWlLk6GJQsqaUBKTNV-1">
          <mxGeometry x="310" y="470" width="80" height="80" as="geometry" />
        </mxCell>
        <mxCell id="jF1OUKV5G7TDA0UQZqW0-5" value="END" style="ellipse;whiteSpace=wrap;html=1;" vertex="1" parent="WIyWlLk6GJQsqaUBKTNV-1">
          <mxGeometry x="500" y="470" width="120" height="80" as="geometry" />
        </mxCell>
        <mxCell id="jF1OUKV5G7TDA0UQZqW0-13" style="edgeStyle=orthogonalEdgeStyle;rounded=0;orthogonalLoop=1;jettySize=auto;html=1;exitX=0.5;exitY=1;exitDx=0;exitDy=0;entryX=0.5;entryY=0;entryDx=0;entryDy=0;" edge="1" parent="WIyWlLk6GJQsqaUBKTNV-1" source="jF1OUKV5G7TDA0UQZqW0-6" target="jF1OUKV5G7TDA0UQZqW0-7">
          <mxGeometry relative="1" as="geometry" />
        </mxCell>
        <mxCell id="jF1OUKV5G7TDA0UQZqW0-6" value="Lắng nghe dữ liệu từ wifi client" style="rounded=0;whiteSpace=wrap;html=1;" vertex="1" parent="WIyWlLk6GJQsqaUBKTNV-1">
          <mxGeometry x="290" y="600" width="120" height="60" as="geometry" />
        </mxCell>
        <mxCell id="jF1OUKV5G7TDA0UQZqW0-15" style="edgeStyle=orthogonalEdgeStyle;rounded=0;orthogonalLoop=1;jettySize=auto;html=1;exitX=0.5;exitY=1;exitDx=0;exitDy=0;entryX=0.5;entryY=0;entryDx=0;entryDy=0;" edge="1" parent="WIyWlLk6GJQsqaUBKTNV-1" source="jF1OUKV5G7TDA0UQZqW0-7" target="jF1OUKV5G7TDA0UQZqW0-8">
          <mxGeometry relative="1" as="geometry" />
        </mxCell>
        <mxCell id="jF1OUKV5G7TDA0UQZqW0-7" value="Có dữ liệu từ client" style="rhombus;whiteSpace=wrap;html=1;" vertex="1" parent="WIyWlLk6GJQsqaUBKTNV-1">
          <mxGeometry x="310" y="720" width="80" height="80" as="geometry" />
        </mxCell>
        <mxCell id="jF1OUKV5G7TDA0UQZqW0-17" style="edgeStyle=orthogonalEdgeStyle;rounded=0;orthogonalLoop=1;jettySize=auto;html=1;exitX=0;exitY=0.5;exitDx=0;exitDy=0;" edge="1" parent="WIyWlLk6GJQsqaUBKTNV-1" source="jF1OUKV5G7TDA0UQZqW0-8">
          <mxGeometry relative="1" as="geometry">
            <mxPoint x="350" y="440" as="targetPoint" />
            <Array as="points">
              <mxPoint x="190" y="900" />
              <mxPoint x="190" y="440" />
              <mxPoint x="350" y="440" />
            </Array>
          </mxGeometry>
        </mxCell>
        <mxCell id="jF1OUKV5G7TDA0UQZqW0-8" value="Thực thi dữ liệu" style="rounded=0;whiteSpace=wrap;html=1;" vertex="1" parent="WIyWlLk6GJQsqaUBKTNV-1">
          <mxGeometry x="290" y="870" width="120" height="60" as="geometry" />
        </mxCell>
      </root>
    </mxGraphModel>
  </diagram>
</mxfile>
